<mxfile host="Electron" modified="2022-09-23T10:59:02.685Z" agent="5.0 (Windows NT 10.0; Win64; x64) AppleWebKit/537.36 (KHTML, like Gecko) draw.io/20.3.0 Chrome/102.0.5005.167 Electron/19.0.12 Safari/537.36" etag="dU5du2PBoubbhbTGoFRF" compressed="false" version="20.3.5" type="device">
  <diagram id="0" name="Page-1">
    <mxGraphModel dx="782" dy="539" grid="1" gridSize="10" guides="1" tooltips="1" connect="1" arrows="1" fold="1" page="1" pageScale="1" pageWidth="827" pageHeight="1169" math="0" shadow="0">
      <root>
        <mxCell id="0" />
        <mxCell id="1" parent="0" />
        <mxCell id="eChx18Zrx1sLOPhIvOU9-1" value="" style="rounded=1;whiteSpace=wrap;html=1;shadow=1;strokeWidth=1;glass=1;perimeterSpacing=0;sketch=0;strokeColor=#B3B3B3;" parent="1" vertex="1">
          <mxGeometry x="40" y="80" width="480" height="320" as="geometry" />
        </mxCell>
        <mxCell id="eChx18Zrx1sLOPhIvOU9-2" value="" style="shape=image;imageAspect=0;aspect=fixed;verticalLabelPosition=bottom;verticalAlign=top;shadow=1;strokeWidth=2;gradientColor=none;image=data:image/webp,UklGRpotAABXRUJQVlA4WAoAAAAQAAAAKwEAKwEAQUxQSEUGAAARoMH/n9eOe+NheBiGh2E4DIfhMAyzYTgMh2EYDsMwDA8PP7B996fu7vP5/YGImADEZVp8nEEc06Lppmly9O1pmm5tkbFPFVU7zrTbx9CeC56d2ttk6ZDbdK1zTuXtREd3Y5NzyDSjI0/aoTacyerBkmft/ZKx5NRv5OmtPzEj6zby+tZlbNCXmQK41JoD54GCOVYq7vKbpaC6/hRtql4pwFubxFjSbhRo2+nYSlpLAXddGlO6cxT6Po0l3TmKwbuJobSnaBxM7KQ9ReWUx4y6OorNXkfLaaMItZc4SUeK1EceH6p1FK9dEhmnlaJ2q2JCjxS9UxYLqnEUw1cVBdlCkbzlEVA5iucmdKqnqB6ToJmFInvLA3ZxFN9NqJI7Rfmkg2QWivStCNDFUby3oUnuFPWTDkoyU+SvaUDShaLfmmCYlRhoT4EwlljoyiCcHHGxCkDliI+t9y7EypvnWmLmXfmsJ3aOib96Yuic+Konlk7KTy0xdfBSTWztPVQRY1vvnBxn6OKZ3BFvz14xlpjrTh5JV2KvM95IVmKwTT2RzMTiNfXDQEx+KB/UxObOA7njE5WHUwsx2qZH64nVD3WsipjdHSpz3KLyQGohdlt9nJ4YPh2mIpa3B0ktz6g4hHoQ0zd9hJrY3h9AO75Rvr87MX5WezsR6+udqYV3Tu+rJebfd5U67lGxp5HYP6v9lCSAzW7UJgFO7+VKIjjsxDgZoNM+BhLCeReGxLDcwyAH8w5SEsTid50kDD/TThLI/KojURx+pJ0skPlNR8I4/EQ7aSDzi47EcfiB2uTB6e/VJJDd9zaJcMm3ChLJ6lu9TExfUk4mKP3OmYSy/c4oFetXNIll/o1aLm7fmOXCqs8yEszzZ1fJGD/bJMPpTwoSzfqTXjYen6yyQcl7KQln+V4tHd17g3TM71npIP2OIfGs3qnlo39nkI/1HSsflP5lSECrv1oJ6f+aJGT9QzkJofRVQSJavaplpHt1k5Hx1UNGtldWRih5SkhIzVMuJeeni5RcnzopGZ4GKZmfFilxABSJaQYYOSmBUk5qoJGTG3CXkwcwyckKzHJigVVOCHCCokGCmqaSUhhJKQtJqf69UklK+/8rF1Gp/nflJCmXQlIqWckl5ZxKSqEkJYOkpFgFBVjkxAGTnKzAICczcJWTO1DJSQPkcnIGEjkxAKyYKAAPKVkA4CYl41MjJd1TKSWXp0xK8iclJfoJi4xYvBxk5PGqk5Hbq0pG6lepjJhXWCXE4s9eQoa/Kgmp/0okxPyFWT4s3uzkY3inlI/6nUQ+zDuYpcPi7U46hvdK6ajfS6TDvIeHbGz4sJaN7hPtRMN8gkEyZnxcSkb9mdrkwunPcJOLEV/M5eL8DSxSYdVXGqm44ataKvLvYJSJBV8+y0TzLeVEIv0WOokY8HXtBMJ8D4M8zPihkYfyFxikYcZPjTSUv8EgCzN+bGSh/BUmSVjx81IS6t9hloNN7aCUgxp7nKVgU7sopaDGPkcZmNVOMicCBfZ6lYA7dqs2/jm9H5T8q7HnkXuz2lXqmJdj3y3veuxcrZyzem8oOVdj/wPfZhwwdWzLj4CKay2O2fNswkHVwrFNHwWZY1iB41b8anHknlsTDq0WXm36WMgcqwocveJUi+P3fJrgQbVwadM+QGZ55Ar40TgWlfDlyTGogj8r/rTwac2dG/za8maAb3vOjMo7GPkyJ/Cvmriyavg4mXliU/hZrxyxBr5OZ35YA38nD26sKXyuRl7MGp7vOTEl8P6VD4NCABsu9AhjxYMWoTw5BlQIZ25jz5UIqVnibisQ1uQec5NGcC8u2lqE2CxxthUIc3KPsUkj2BcXXS1Cni1xtRUIu+pjatIIfuWiqUUMZmMcLTkisdzixzaIx+QaO3eNqMymmFkKROd5ixXXKERoco2TQSNSzSM+lhMi9rzGhW0U4rZa42GrE8TveY6DrVaI43IO31ohok9T2OYKkV1M4ZpLRLgZwjQViPS0WUKzXjPEvLnZcLj+hPg/38MwVQo8TC6z75YmBSez6+ove8vBz+xy3/zjxiYHW7N6sP5wY5ODvaYe7PHc2ORgs6nv03EeQ5OD32nRdNO2Jzvd2iID74uqHedfLVN7KRQkMS+Kqv34UhQFIhIAVlA4IC4nAADQtQCdASosASwBPoE4l0ilIyKhJtMskKAQCWVu4MDvI3HAP4BigGHNP09gpvjxP5aezvyf10+kfCnCFmh9dPiL+X9zPzV/1Pq5/UHsC/ql/t+pr5hf21/ar3aP+J66v7L6in8//svXPegd+5npxfuZ8Of7ifsx7UWqheVf6N+OX7P+pT9U/tn90/YX92vZf8T+mfwv9l/br93+gF6T/Vf7D0U/i32Y/Jf4z9s/zX+W/1u8cfyz9//6vqC/jn8v/wX93/af+9/tl9ZX13aJbd5hHrX9P/3X98/KD2/vjf+H6LfZD/ae4D/MP63/wfLF8LX8b/w/2k+AL+f/4z1W/7b9wPQ3+cf7P/5/634B/5t/d/+5+zi+c5zr3+Ra61CyLxUINsp+T++o2cnEqiawu973ve97hmP7j8/QY1HzFnm+n5ZIeKa1bPuvCXZ/aH1ahz0B8s/eSeGYo5BJhBrzp/CPw8TtsA+olbI5JXaha+MabWJrMB1hkI46+6QSI5n/YQR5cpOHONETPX04Jg150/R8MsoyHQsAyuslJ+BuuDE0C/zJAO409B6qxFxFFWDPG3LZFTyRdxJdPQGsFFK0I9Y1pbPDli5wF81rTzxk0Hqjn8iZ09Txjvg1ls1l9VyHewIcuOR8epIaZ0yNUzViqkf378KP/fMZY2zQjS0Rk/PSDou9Cwa1bpU/AWExPW/AEtdCBVuMu7/2RuqSkjM1LqTapALZ4SZcb4/x/iflv4iFKD7cNgdANzuH85gRId+bp1OVSq4ChVZELeBwJe36xTT3YXrOknp8fLjZp9KNZbfwyVG6bNsTRjC6GjL6hkQdLtJy7Ar0d/vsTVcKRKl2a59Y0H5s/nfEm5JcmW0XwMrPC5Dopic58zJ+89nlzlQs9VzGvuR51GH7aniKsbEkPMn2niytSWPAh6DuKyeuRkTcsXe9LQguN+zVyM083QDvveN2M0ugGNlpyNfGO0eRuSRNSUupp9X5WZf8t9KAcdwaIAHqJVC7foKjeJOsJp0dsaDcUzl0jw2vzNmlU0g4x51OY+DpA5Ya4qRFnc8tiJj8paZcHgv7XDmRX1FgpLJwlmKPIs2DGj8eMO8B8eRSAPGCcYzHP/1JtdCY8ccRAdi0Vdm4xL8wrwm/hSwlt4vp9K3+YACeCmtDcwYqVkovA23qwzDjfQIEkenzOI4EzbOO/SGTiJ+QGeRZ23Mk07cHXV5y326JJKsqMhbHBw/bQ3RDFNMHoDiqN4z6Rf98ILR4KMFVJxQ1rM07XEyOANNkghAUUg5lR1NLaEXGGknA0mT6YnmpnAlFBhSE9aG4aODpYt7B9E8tS2hn3ViSGMIM33J6MrFuGepGeZ4bPVNx9KUXBfiCu2EWkNpbjR7sIoiMF6BHup3zumRYNAVxicwtF5vxRVIKPzjjtBv7Z42vcb53fLjk3VAAtNYnf3WC5xXZL4vOrEIn3m4U07i9hUgcM1ynN+1ZiTOQygRI90D0D3z4gr3cT8/KEpu918clR9cT9WmU0QvPlr6ZMcl8VTbNyAFZ6gpHM7H55aVahu+jdJ0E+U1HQxewR9dKdiRvSXc0dW0Uup6Osp/fIJKG1QmVJE/lPZWCM3VJv5A9+YZRO0W3+VxJ+bxsYZGt4BsXkeqZeqO+st4DngNdqXnkQYIyDIsorNjDTSyF2v0iFYOBehG4MxuDZZBqb2riuHo1jCVxXkpXzoT8yQrjiaPHBeP+EsFXVANQlxQJeUE0JeECTgZYBjW9opbLXTV0hFhEKDXtN+3DFhj9ASCnIz6FUz54Y8EaWqWuSe2vdQkKvul1S5sYwgFb1soYhQUwQXUQ+oqnD42E0xKjTJ2HkN5ITF1Etgxsa8hOOVk89Ma/2aj+wMFy9pJMIQezZoHKqkDx0AIR+ovqawN1yjRCJbgYVVYgRlEPpznOc5z1K15qZYT3STCewfnVjGMUQAD+46Rez///wgtztAwloN/L+X2MoG/94Abbn32efrIL6Avd4fP5JVojiqiJcSDFys/r4Ij4cMushrcjPdBMfOGjM3Mu8xavLU+RJKaDxxYn6BAlbgqMecD1mhF2CEqkebo0zrJ8fxEMxSrUBxM9saZI89UrDMR9dq59prWi7Mf20qQGl+p//CuMEHnuaANUcBfN50QGZpYEIRTk102SWh1fVTjS3xzvWMb+cWp6bizt2OAWuTTGJ33KeYVrl0ts+KDQg7035Qy35dU/5ZzLeKUH0BRFJZV4Jr1KYE8e5otqXIHV6RXocflPIbwVTvANoi9JKr/AmIYQY34SgkvLziS6jgoqRcC7xb4VoTNULxJnoJztisAzdQWG94D6yQaIGuNFJqIdZ12iy50g4BjziEgI3+vgiPAMpFEEmFUvQaV1IM2UnR6s3TNjVEnZOVZ89kgy4QIQy7d+NqDfmN9lGKAmjVlmLHkvpu4IGi12qOP6KAq50EMcO4AK699DIfCHTLtyDht3vlxnr5LkOcEjTDLQrDeeIbGdIlhfQwQKXjPEPMWyLYydFAlMBBrDpyBYv4zH9301V22YX17xm7feu4VpfvVLsUxG+dMnUNTWwKHEII90y0QnY9lu95pLjNx1m+SiHcLt/HMiJemQ3TR9/yCnqSkCxZrA4safa0l56Bycg4hq49P2yJLy4/Cza6QGY85ughg/irigJYqyZMK/WDG1BFAs9p5yG4Jt2oU8y8EXx1qcPXEj/9neVQfz0DGBM2xC9c88tNjmLdLHn2ak1J41JY76WaOypqrjTsILzT7o5Jc/WzR5kIKuev6+CI8AvlCmVce1wd1aWdsbcxI6kvgaGUIF6971QL9jLKqN3v19ddwhpjOh3a8NV30Rdb9zixBLsDLraUo7PFjDqGj22eWxC1jU3EK3LuZKtil6cyLKrkhBykFvdzyX4Je6oqhcS8uuhlTyommkgjsilTtf293+w9uCs1RKHOyvHGQMB807CzN12USjLQZPRYUZZmm/tseA0Y1wcAe4GsxIOcIscFUyrlQ3VefSYUFSywRMJHn4FuLatjBNBV0mDvq6xegv+zn5chptIATDp8zXWHQG1HW1tubsqDmSYFXZcW0u+nwPzm30//9FvbE0zs72ssP8T1QKaKBHWfULJM1wwAN2YmS3lc8gyks7sw3mFPKMRNFTafB1pXP+7YMDkze8MDVtOynof6F4nJvBWz8LDJZlPNPAhA4GAtgiMEPhV9piQ9OSEXZymhcwq9vttRqkEvfNBSZ+f6cEHHWzYqlBUc1rJjcl+lMV4+wBkatvkEBisaVrAfb1upbACf10YLJe+v/6cvi5NrNvgkQX1d3+PxDws8d6q862ahkjZwJnNhWsa5LOO9Li90BNOjjmWwygXzF9DxSwHFiXugX1jQi/Sg005qa7VE/rvz0MUySD7LO07ebCuTerynofpC67N9aqJuftDjm69sn/HfWn3KLW/Ui3X2yTtLdieqTthfZI7KuORrKQHOK8Ms9ff97HK04aYD3Yl8sjGgY21xYW1GvqjIIZdxch2jSkJD8Lak/eSc8jrpK9HrmdihMJ5XRxnmnAubV3Txsdbnfxpxb5Pix1Jk3OmGPtcwylN/06Dxhj/WcD7NDnjrn0Jr+4IYoBGO4WG9dRIvpFU8yQbQo505saRBjudJMOGvrdm/LfAfTVlwHx4fHYedW7Cs3mtm+Bf0MKRCOzlbj2sxwUTtUpY0m7iNPWCtHmjdIVPFOCs3SNjjdkH8Mxtd6AoAp2cTMi5OPyUQu9cFxBJeJfg3pxmY21rrnBCBV6u8o1XRcQkraUNQj8roMd43dTHHg9WApFuaz74e1g0PL1+SocW2kguPW1qEnX8G0I8khkyPGgcE679NSIyq6b2m+BiSLMRU+WFnR6vqRZvubmMJcxkFYX71JDCXaMj3A0YGzh+S4bocTEO8ucn9JCfkHBl2UhKVkJy+1K7XdF3+1eiMHqqk10V4X29Wlaxv0/A7/uN1jS409XfOcn1xmuimpZxazVnnjIVGzEch0NGxdWLIhxFNd+2f2FLIG3mAH+9msHo7FwcQ3Rem3YGrvJ69iXMmre2saEzk5ZDNe+tQpHL/jGO3GWuayM4wI6lxPwa2Aoc++jg9InCZMiSNVCRcs6/UbV8Oi+zUswCY0v1sg6c70QOyGLO8o5RBpSP7EDTIeMFhB/W4X9zGRrM4wWTDjg5FTj07XQx6qzbeeO2JTibXlWV0kgiSdaMtIzdU3QLF0Hm4trCPTGrsrFMetUlgpaKc16qvNflF65JYjeqqkDclfdkeL5W+xVThyt9KFwCouwEfoLgYEFYY1L/egHZVED5/J2EF0LFzaFN3zlOO+MMTEUcQWvYrO6w0ybDBOlgVPHdL/VGA63di9p///4QHyyK1Nn/TA6CySEUKpRnHRHElrq01Gxa6HsbkAFvCXkZLaYPqw73kvvgIAF5Ru647BLZe5uxDIAPX4LrwaEIa2OFbDieDCY72GQxLTX6N1jFy44/Kk/Qpw1YMflL6s6z0c0Qj33oOyJMjNL4d09I8U7fdiTOTLc/S507ALAmV1l9ZMFFrAxggTFOQEu1h1JY3JeOtlwz3g62Nv3ZlHD705zw1IF1or0FzrPww1VfVl+lVTT9F+r2G5VQI0XjmVeY72XJQlRKDhwf4ZN3ns0eiVPsa2uS3+c2drsvXkr2pHH3k3Y2YSVffoWQbUoRz1fQjo+jXQeFvxHfnqsYTDdBk/SE5iQMLM356HhDcdTiIhd8NM2EWMuXBEVR/bYQUMQgvZAyNi5m9FFKeO+FV/b0/NGTgwJwSXFIWgFkZAEDIJivJPntWcm3BMXgCozzSkqRq/sY0MmIXDSrzXMlD7tUIRHhnYqk2OreodrC6qdmF+Ekjv2FKhwgE58fLC32dQOCnakg3SqxB83QCAwngodHV0kqZsJwEiddZh5XnNVxtXRQBTicNKJoYkzo1xtTC1xfPmNxj2QpC/KsKhhSaHmrzgPLxK4iqTl7QMjGK4zyPbWkMXoQbPIZsNiS+DxWkdHLMLkga5qQoAeV1aGGhNjv0yA5KlR3RrFLZXNDpPoqcTeSxu3ozR3FZ12cRixPPOVm5uJJd8gw2qe/5dorQdAyuX/aa9vhz4BtGN4JeCUoMqGK4hfdlQHXzFcNrjKj9dX8JdO528qdeuDXgHCeeAJUOOrnGjC82mG644iYDMAOVtPu7a0JGW0u0y+Qpk90I2r/nSB82IUMCWeiryDHShRwOPmjnbJ7hIlHfRdO8NfRE0WPbtq/i4uXjpwW9jxuey9XvPKq97D/uDbTE+/sXExTf4Wxw1mYbOxocmGeUBDgEzXuQfu/deG0o/0dDdtIdGlQuMuJpV3e6GZQu0FFnHRHTNbWcqr1gKSr4gxt0sJOLQlACSdX+cOBt6ktD/UsezPQtSRjQgKpsPYRPBImlXEg0ujNZyjLpMVLapoEbosfC2Yzfg6QlmAVGUOGMobn7oakjIn2TSVjNrbwlt7lGa9WvCqjrj8DivxzgXZSkhH5ZVq7TVjkcnzr74Dcs1e0z/FyoAc1aaldD4pAZxAET6F91Ib2/AJ46MqEtl+AfWOLjhqyWsOYsdbLszzFS/EnYbzt0Qb42/OzykGlE1C16n8tEoeM/1q1TDiiHXR2tOkIIiS05RhoW2eQd7q9kVzNtKHcqOmeI2tAD5PusrCkH8IsGXiu9yeIfFWRI6961Dwl0rwZH9IQYUZBhKADfq/KDTQzisB3sLh7iaT0d6A173HTrHyj+MbyOrL0yIMzuMWJtbms/YhlAalTMdYiYh502egq8otzkuRMJ9GN2b5/GRBIzyokZOtQQYew0H7xugjz90h9V1jd7Z4GFDkLL3c78uBaZmkDs8DFARM5fbjdFhtISDHEGEsNgqUEZ0Obf0GCXr1TzeiPDAm9lABd71UReVO+0WU4B8KXw/zz8c/uXWnaaO/utbkb3xmwUIh9C0lLbybV/h9Btk/n61W1KapOxCRc6MpMhjBgqIIsgLCYDwCYOqkbkBKAL0Cr0IRDo9KBMzbVHA1nnJu2xE3dkmGwJuhwxqYu3+RprU9/Qtyp6sdE27DHcvUph9/FlzRLK7DxAJjKQDkvcK8JU7DYY92pVbX+zzstVTKOEWGV7UNW7QgDjuV+pKuez5Rf/tCK6uqEbg2nF+tz5tM0a6L8iq+EvqkBN8IULp+QusZMHegm0tpX3lpwG5WvhiapnIkt50yGbKMc41h6g6gLIj6J4pm2ygZGbVx4EhDL28bRr+37DanNcYCFaEQflq8v6myvST/cKve/swB+JpBC0Ik4A/pwhB6agvwntFR9BE3ERX7ukJIyL+y7uAxlpyMPzJQYXwONFLB5FghddBPpEmJ2ix8Pa7JN5Ip42BZSblWPFWfvW6NKqeInT49zROTaqzI4vYgYMt+PTiuJa3sSdzDYFWp1vO95E7eY5J8Xnpf5X4pg9w6tAu89zt5HUFJdtKRYk/TgS0LrFoCmLEczIGOdGNrWQv/cyYD6PHoB8DXdvnbg+xG0binx3933OtNKq44mLvb/U3n5jd9XliGaGW9KZf8SPdl5HWzjNq78jz12L2gI8ZcQUBaAOeIxaowlXgwkuJl6X9mSpoZdCQTx9aAISM/aBTmxDOa/W/ln7gvMaBneaoU7IjY66ax+ami8e7HdO2vM/dKuk4PGaxURa6fXfhrlM0b0ixV5/2n/N7g7g6ooOfovbhRUOzIUfduRz5+jP77FR4E+9x7sJNE59PnpIQPGPIBkylVadlIzwGKBQNg9K5EYrlB+/JKUCiieesXJ5HpRC3fipkHQD8/8mOi7/RWC5vKiC4nvDhYokwcpj2diNLQcnMWSXIDr2xtuEkZpQMNjR8tgODkVshfBgmzNC5mT0OdNqR567Ph23rk9CzKqr2M24T3lW6nEJKsQ2tQFuqzPpAHkpHSz6yj+m1iT50Ilk1t7/7vR+uvVBTAaUDkkXOJBdy1i7MXc6LACrYNi6e8f+fsG6kSmSYdiYEo5Fvzm77S47UNI5/PIGFboz7R9dsFpGNoo7v94v/JLtDXasPeqRF4c1Utkgmi5d7cKo/T3LUBhNz96eyCuI7XuTCgKpY9isN/i2eeOqvYWLWGbkhg3td0YYQ7OMXr2jE0qD9nBlEh/Bg+zo8SAfJ5oeLH1D6Gs+eRCSbsjbUDS6F1Wu0qOINT0ehfzfxnzzZH60M+sFtv2mPTeAbIyYN2irIv7tooRS9PVc2TYaIe9b+9gbaGOXFpZWKx9SWLiDdrFjh5Sja+jlfFDxhFfUtlkIpVwieSy2d4hsLTiXgCX8C+rk0pMG0sF2SlQjwa1s76g55nyMJ0XpMUcjHuzhQQYd81DRgvQlcaCtgUpZVFG4ZX6k/aKpJByaJc536cG/jcpWzvZsJSkcpZTaI06kzHz45wCW2hBwSGIbEgm+lM/DDqOR5/Z+jqcFkZpCs9vUsApZC+l+YYKrvKjMk2IR77V2kPuVpO39D7p3uCj4csX+WauElVMuxN36RhsB1MoCjbdcOyXou5WvuGB5EB6NnyilTayp1eXbU0mIlsKut+EWCTAuQRI37Zkisgbhb2EDrWI6Mu2WacFKs4t5r7AM7ECa+ecoKPYA1y/hjRjFr+zH+SfgCey//Kj6fnv/D9wb8LbDA0uBqoICwnHy7snIkS4yuUZX+/WxgWj5ymLv1t4P/7gPJBGjXkFpfEWCrkjiB0dfi5PLQsJvmt/Oq2csOd6b09T7G69YN0p3uBhRUq7NPpvg9fBDxAFp1fJriFpW/BTrL1pfdgtk5xUiWk4pbuZ7wfATHDvil0eWuYYVa0tuQhG63dVFH879iJG5lqb/5e+Xu7bHk27lVyT/GH/+2MySqG1qTulzTcEh/bQZnB4H8kKqXPdE9WV+UAqwubvj5gbdn9Yuur7jAT6tMVZpELw7sKULsNqaJ7zFin/oeH57Bbdp44F4L0jdAWHdBzUvA9YPbvloMt2yJmO45GNp8OFk9vP6AmBAGJuFy7HsRIH1KIFJMmqgraEbe7pAvIlRW2hgK7ilZz0fNpWjkJWhjw22Cs1+TAk1Qx+xdWXKuETrCiCAjlilNQ4hvfkpu4kl6D+kfHzK6Z4B9nv9EuuyfhVYs5Gb5Jp1ahOn0nUh4fccpYfJmdqi8vR1EktjgJc6F/jIjYkVIuQi8corqU24DnW4jE3sGAeNgEghi9Ss6mQnrhpQ1XWrVsxHRGuBYnvHaoF/5dfoVsTtm7xOSzswQn12eJvJl6ZGsM3wUkikeWdpy2fLPZK4c0XtK/Exrv/hHThuwtZHN/F2mzioY4qv271S8QKSJZ9HBGiJU7qsN9Kf4JFBb2puHXh6oosK03MySXo8piwVK7hWc8HUXRReRKGriSvrmq1kl7/zWVvp5nMNpeoI/PbLSToqJSCtJxgATEphlUm+wHVT1s9oCmly2mgk1RkRXF8+ezRczoXiJQXETYmKEN4sUivzU2STejiWPPPjqcmJr7CWmnbrNQakSoIf8ZJpKWn94i7YcoaXwNeWVKDpq7V8m2RfTtDmA6kXM4pkFBY2ZGP6/xzFy2cw1RsTNqIUVAML3UnEH+3O9g0LtiQrtKsUTcVh90DH7M4LdmN4Nu6ljub7CUNWGP5C4Ykn0tbvwmDW14Kdi93WudbhP49xuF59evH/TNOnb76JAjNWOGQtAbKPdqO6PpDl5/zciwuR9FdVcg2ONVVoambfFdpcnbtcEyGzsJQjanRAXAw3C4MJ+E8n5SWPciv9OIyBvKb7VOdOh+RJpPjfQSlr4/5FE8RD7aLiqMpw8Hl3DSSx0XD3KxxbVvkgb2grtMmLs9OUrp5r48aaj54BBrrlNY5/reF5YQhxwff86Hrjit69IusSGU2gy8ZPX4wDPyT0S1diIfleVRK1mVDNGEc2vobRTDHpUPY1XORqMralRkdWyyzhmt/tSapxOBgJK44FM6SfEg+Yql6grDpO/XjOTAxAWIL2NiMRqEnveRo/xI5fENu5kiPv5i1hhHTyEC507dvS/DdSL88yT/OAhda3CAKgAeHSbKZ/et43QlZBrZopSFU8WAnpE1gKSuwKP2lcOeCmyeFwugoXeEglvAtmxqnDbmOIoJbXjMOIJyE3FS8nOVp46QS1zDrvkpdu4R5dgAOGAGmxLfZCkiopJK1y+vjYO4l8vSTXueoV/kgEcGfyxa6MOrBOjElqHSeIq5TDoOGwsSAtTybDZ3YQepsUMPKUrZgW75GbCRGptoiVbZN0LwiMXaEVdSvtxbWR5mO3MQUDS+fQoKWNDHT2SK2+JHequjWSInADlmuFBKjzjLH5EEuMzc4nXWEqXPeJgPGykhV4t7cGVR1YU+CIFXnnweephDs5o3MTODuueF5awP7noxU0JGaMVFGIT7zw8lV0pKdSpRHgo3WZ/REoOaYSN0G0oY/7OlZ36TF8ld+dy0GQMtrSMhKd5+az3W7ceC82VvvT8MwnC8xe9idtHOb9nk4DDsq6LZekoEI2ELoaDSM6Vg8aunJgkjBBwjNkoDJiZY/pqKMP8d/Zx2dXHjG6FIsrZfDgsFDwueGAu1XeNmKxRfvJ3sad/y0SVtsMQdUofp1cTnjubIVZhKMLq1BRu8GoorBFKQRvIf8OZjrcjEoIL/Co3wzTt4H26ff8EnfMwtyVJWMW2R7MphsXxspI71tXvItwLEdPAxVyCvQ28GgsGiUNvEPeGihhl4s1yxFS5eNub3+Tyh0h/BaL9D2HcIZOs/7nBGKeEAVsI9koSu9vdMRmlK784t+FdS6GZb3DXpbldXRPXwGD2j2j2Zf7As1ioqbEuVLOPovlQcR963/02pZEqXd0EvB9/GsOhOVWN1xwA3NK9GV4jJe6IOnD0nrNsF1Y8eZjqiXeVHsxGOCPzTWXGzPLga/4RD7+xRoxsN/2jIMP6gwG99CrX3MKl67E8zwyMnDV2Bk1vvANf7OQW4IkA/fRqX0MO79Hd1xbzuwvMJ7axtB96T0wqGZVYRyvCPRokjBYoApHkE0zERgvYEGZUrHTe88HmVW2wP0YjXlav5vu51cDfnujDSjsuImlaVOTxk158ZEZmfEEcvF4Ki/3KgD3TJzTGWitjXDYB+Mn6MZx/fNyotrmjV8eOwL9nGQwPtiaDkI/lHKudOXYA322eRP1p7As+Ck3qu8fokudmcGIlWNt7NWdrfsbXvSrZlgKunXGPGcr1LG9psMbLwWdFLhlA0aC2PKsQxg2XvKHIzofEgsMI1aGn1y6v4ewsosq5aGnwR6/Ya1awhTJ6wDqSCqLF4Lb1Y6XkE4AGBArgu3fI3iNtHOeXcd45eM0wfyInVbrS8oOLJoAwrTzHcUxiSqcekd48RDZnUs2KkMeGZAyiqHIjC1DuwtoFWVygxhINF8sUhmEWxBU5LL/2F5IvmKLoLwOXz3i13w7mHVsx5n7Mc0kiK9Y8/8P2QdndP8qSL6KOw6wWSB0vJQn1ZYqI62Qcz6/O/ISZmAkQtCokp0CDrjlanfcrX+hFpJXuSSO4Gfo5XpfP3lu/brvYcDBO374kr9HBlr49oEM+Ud2TliKOmpgFFkv2Z6LBeiyRyrxuwbxUvBxivJTnWoYJlKsSDP8SZBOY8xTnaEIIs6WF1Qx/dt8kYvlIw8kuvxAFiR8Cg6aFhMcT/sqYFoHnd7AZV9Uh8+aC6+5b6nIZ6v6c2144PH80/GuRUaDUkl3GCnkM86IaNioCMD4fHtfNRsfnudNtTwFtEBcn/ZTs9vdz21doosMaVq0NtVW573yXt0+HPHitzlPjlLYeaLggqv+AHfDgLCGdLGwgvI9dh/AZv5FjlS+AkMlghyCc5DtybXJbPIgT4kG/XyWQceQBj4658APdISHLZpowboSY0YKZ+yBOgxlX//H0ZKT4v6axxuGR3RzXxAFrR2t5b7olYd3WwmE88dmdiK9kxEvAJMeqMAwBK+bpdiDX2cyBMZgshAQz0lV/QgdJ0PW+7LQhk8EXYph0oc0NLM67SbI+tHf/77Z2cifij/xglINYTif55xL2Iwq4sycOaKmDEeV4qlZOBE0BiU5B1qm/r38KnNWbt91t9WWqb/f1ImOYUMzyNJRrcJXCMdO7aidRoXhMfOzhKbg9K1mR86ZHva3yUiZZ3HwullcQtAlZwENmJ1iZD7Ky3vrARnAk3DJQJVu41JLgZ+sxds/9AZDJ19S6nG7XI9vSsso+vjL9+34B4JpvJV6dSstO0NjUCrlzNgCMGtMqORaEOARzcOnlQFPd4WulRwZs71hN8SmVledkDxThUt0IxcWHRFhLFRq/OrYR55Z8NSgDajjyeDvi0qG3xiv5Fxp5rQEqJKOhRX7dw6mebBvLF/JvR2Z1WLBLq6F5TUVNePqG84bRUgkhHr5dHpLmyKYjY/d9oK8rl2aYTADT8X4HqG9BO5uUewkw4m6gnb1e7tFfoyglqANugv7/oGEBuxn74CgXdgmZRaAVGX9AHDR7ETABk6jcWDVVem6wSGzIOkHg9/7Z9gUj5ab8utiU3ammRCiAKV+iw4Kn4kPyeiIwH4kg2uu1T3q+lORVSemmXzbyHStya4RaNSs9q/WdJF5WIueC3XLedlarG4LgbKGl91HciVQP6AypCYemcmCc/wDfIH8aLMhxsfSHa4wTm4Z+BiYSYfBZKXGPgWGQicXsec+v1524IF946jya7oaYfDf0jjcSECqnrv7wJHKO+iQwNkjWN4fzuBndoGM4pXPWmjLUd+wtCkOF707CiEbu/lR4pdJn6MKJ1+42a20MZ7jY1MKXtUQEAL8iwzqK0UbA2cAOUy0smKTFVcA1WvgCOdjcm8ih5OiWgB/HS4gUxfi1/lDRcGmI+VOVZmrLZVUUflFTLsAIWySI9PjZmDQkfMn7Ck5AxrCrTpRhOujBVl+FaJqXVlY18PW80A5J/7ybz8HdwCin20JW6a8ulpmQjkD07VhxhRfm5ZtSbd0rQGkW6dvszBwG8Gst881bRNsZIjfkLfxgfcbkVLH1pdFizRHeSt/OebGhZgysiiUoTeUHogTg3E3WuuF2dVL1+L4JO2p4Y6MgwYyfdVj6FU/L64lfpYY2DbTXG0qNKsIUoapY7YIeRKpMEesZ9nw6FwATd1bKgvn43jQl1Yvo8bo5YS8G3n9WoPE6X3iRyW9oqGpiAJHehE+XWn0d4MeY/w7iFokc+UThuOrLgxX9Ot7L6Q3jlLYkkrtkYGhuviPDzp571oct5U+HLFsbvkDu4eazP///4NgHXOIJLaZQiSdtYFruU1BLOfFwmQlEJOlc+sLhGVikrf7HOhQXuh78eR8no2IsUK6pfF/ZUI4tL+gMuHYDUN1JA242XjCT2uLkWDt5xFJMRBVp+V0w3zPQ0gXJKAuowu1/tqHS2xjogXJ8etPiaZ0wRpmUJhWMt4E/UC6VVYvmuj0dRvURfSVB14o5bndtsrEr3mjw4lKoPkeZaKYyvqNzyR380yKDreNKOQmVyIeoyaN16FyyPtUQuUhFm5PHVrELiPhZrQwsyLm9O/JBEcUsLwmc0QV8HXJgPsv/eF0yRkR0pNl7pM45fTZ1I+QViui80D89B4wHv3KtGO8yl0ef4FiA9UX/EAsrEzpK7mEmog955/oEk868PYER+vCg5ZsjGb5PcytiMIFbR1w+yBFHtbrxXX8NphVMGiSMlTLpoKQpmsvtyaDonOAJ2kDyQ9LnsyWeY6oOv22e8H6U4tAe4qSHIFwqxEIGr7GkgF5Gt1RqB67JWsFtTXMyPL8m9J9Yer01CpJFAXGegJwnjn0AJt52mHRC3/8MQiIlWSLignRMPPmvEAeUpidumRgVak9KDriTOfXUuwGI+nc8u50/zp5h2X6EJyT5i7e7v8C1DBDxtVWikn74fu/UDMhTjdouNcyfZzEcfAHam3Q3nwi8QGytn0SqgVxTo01NZB9eXf6eZMmKESIDArGA2GcjRmha5YBpk4LYu4WFAK+TOKGuow6k2LN+mRwmMUO8j7+Y3i/AGOh8e6P5cu6+ptO55pI3pn11jKbPykVkDbarCzO06h5Mb9oj0E/pHXWd/GGkM4F6KTby6FQTjXFG7sC+0FsOKG1cAfVTWvy8dyTvIVc3v9pWom+I0IDYQ2GgcU0vxsp1TC2w7Vk5MWZARTeePZKmXt2OYxriBaHlXsN1+LcyaSnyJ0kDRjX6p1yCtzsmtRw7+6dkXsT3yYDedfJYciWhTZAKCKVMnwSAsv5086P7VVHKNwAQB1Rv7k19MikHKd0Lgmjo9wAqepyNVa2uPXTwvHSEIyb8cpJKnN7vBB8jlyT1grVfwG+jJWICWGXVG6BizK44lSfbQfCBTA8d44VDs6iR61LuPlctETwCI+7/LNDjvUFuVgk5tLm92A///wbv+DNgSwzf2Bbhj5yJaAAAA;" parent="1" vertex="1">
          <mxGeometry x="154" y="90" width="260" height="260" as="geometry" />
        </mxCell>
        <mxCell id="4Hp-IZOo0zLQBIbfUoJF-2" value="微信赞赏码" style="ellipse;shape=cloud;whiteSpace=wrap;html=1;glass=1;strokeWidth=1;dashed=1;dashPattern=1 2;" vertex="1" parent="1">
          <mxGeometry x="370" y="300" width="120" height="80" as="geometry" />
        </mxCell>
      </root>
    </mxGraphModel>
  </diagram>
</mxfile>
